<?xml version="1.0" standalone="no"?>
<!DOCTYPE svg PUBLIC "-//W3C//DTD SVG 20010904//EN"
 "http://www.w3.org/TR/2001/REC-SVG-20010904/DTD/svg10.dtd">
<svg version="1.0" xmlns="http://www.w3.org/2000/svg"
 width="213.000000pt" height="213.000000pt" viewBox="0 0 213.000000 213.000000"
 preserveAspectRatio="xMidYMid meet">
<metadata>
Created by potrace 1.14, written by Peter Selinger 2001-2017
</metadata>
<g transform="translate(0.000000,213.000000) scale(0.100000,-0.100000)"
fill="#000000" stroke="none">
<path d="M995 2111 c-22 -11 -218 -123 -435 -249 -302 -175 -400 -236 -418
-262 l-22 -33 0 -496 c0 -464 1 -499 19 -531 15 -28 58 -58 247 -167 611 -354
631 -365 673 -365 33 1 109 40 458 242 230 132 430 254 445 270 19 20 28 44
33 82 3 29 5 258 3 508 -3 434 -4 457 -23 489 -16 27 -98 78 -445 278 -272
157 -438 247 -460 249 -22 3 -50 -3 -75 -15z m360 -621 c13 -26 21 -30 55 -30
36 0 41 -4 65 -44 25 -43 26 -46 9 -77 -15 -30 -15 -35 0 -60 21 -36 20 -42
-9 -89 -21 -34 -31 -40 -59 -40 -28 0 -38 -6 -55 -35 -19 -33 -24 -35 -71 -35
-46 0 -53 3 -68 30 -14 24 -24 30 -53 30 -38 0 -56 14 -82 65 -13 26 -13 33 1
62 15 31 15 36 -2 65 -19 31 -19 32 4 74 23 41 42 54 85 54 12 0 27 13 37 30
16 28 21 30 72 30 52 0 57 -2 71 -30z m-341 4 c3 -9 6 -98 6 -199 0 -143 -3
-185 -14 -194 -9 -8 -73 -11 -207 -9 l-194 3 -3 195 c-1 107 0 200 2 207 4 10
52 13 205 13 172 0 200 -2 205 -16z m0 -480 c12 -31 7 -379 -6 -392 -13 -13
-361 -18 -392 -6 -14 5 -16 33 -16 203 0 109 3 201 7 204 3 4 95 7 204 7 170
0 198 -2 203 -16z m480 0 c10 -27 7 -364 -4 -385 -10 -18 -23 -19 -200 -19
-158 0 -191 3 -204 16 -13 13 -16 45 -16 194 0 98 3 185 6 194 5 14 33 16 209
16 176 0 204 -2 209 -16z"/>
<path d="M1263 1442 c-6 -23 -61 -57 -89 -54 -27 2 -38 -22 -18 -38 17 -15 19
-81 3 -97 -18 -18 -4 -40 24 -40 27 0 87 -38 87 -54 0 -5 9 -9 20 -9 11 0 20
6 20 14 0 19 66 60 85 53 7 -3 19 1 25 8 9 11 8 18 -5 31 -12 12 -15 27 -11
53 13 87 13 86 -12 83 -27 -4 -92 34 -92 54 0 21 -31 17 -37 -4z m89 -82 c26
-27 30 -36 25 -68 -16 -95 -145 -110 -176 -21 -16 45 -14 54 15 88 36 44 93
44 136 1z"/>
<path d="M1272 1317 c-15 -17 1 -42 23 -33 18 6 17 37 -1 43 -6 2 -16 -2 -22
-10z"/>
<path d="M660 1305 l0 -145 145 0 145 0 0 145 0 145 -145 0 -145 0 0 -145z"/>
<path d="M660 825 l0 -145 145 0 145 0 0 145 0 145 -145 0 -145 0 0 -145z"/>
<path d="M1140 825 l0 -145 145 0 145 0 0 145 0 145 -145 0 -145 0 0 -145z"/>
</g>
</svg>
